<svg width="24" height="24" viewBox="0 0 24 24" fill="none" xmlns="http://www.w3.org/2000/svg">
<path d="M15.2498 9.29171H13.1509V5.70883C13.1509 5.46935 13.0543 5.23969 12.8824 5.07035C12.7104 4.90102 12.4772 4.80589 12.234 4.80589H9.75086C9.50767 4.80589 9.27444 4.90102 9.10248 5.07035C8.93052 5.23969 8.83391 5.46935 8.83391 5.70883V11.057C8.83377 11.2912 8.92609 11.5163 9.09136 11.6848C9.25664 11.8533 9.48194 11.9519 9.71969 11.9599L11.4958 12.015V18.7004C11.4962 18.8143 11.5364 18.9246 11.6096 19.0128C11.6829 19.1009 11.7847 19.1616 11.8981 19.1845C12.0114 19.2074 12.1293 19.1911 12.2319 19.1385C12.3345 19.0858 12.4155 19 12.4614 18.8954L16.0925 10.5504C16.1523 10.413 16.1766 10.2631 16.163 10.1142C16.1495 9.96533 16.0987 9.82206 16.015 9.69729C15.9314 9.57252 15.8176 9.47014 15.6839 9.39935C15.5502 9.32856 15.4016 9.29158 15.2498 9.29171ZM14.9848 5.70883V7.48582H15.2498C15.7049 7.48594 16.1529 7.59723 16.5536 7.80974C16.9542 8.02224 17.2951 8.32932 17.5457 8.70344C17.7962 9.07757 17.9485 9.50706 17.9891 9.95342C18.0296 10.3998 17.957 10.8491 17.7779 11.261L14.1467 19.6069C13.9344 20.0936 13.558 20.4933 13.0812 20.7385C12.6044 20.9838 12.0562 21.0595 11.5292 20.953C11.0023 20.8465 10.5288 20.5642 10.1886 20.1538C9.8484 19.7435 9.66238 19.2301 9.66192 18.7004V13.7649C8.94803 13.7421 8.27111 13.4469 7.77433 12.9415C7.27755 12.4361 6.99986 11.7603 7 11.057V5.70883C7 4.9904 7.28982 4.3014 7.80571 3.7934C8.3216 3.28539 9.02129 3 9.75086 3H12.234C12.9635 3 13.6632 3.28539 14.1791 3.7934C14.695 4.3014 14.9848 4.9904 14.9848 5.70883Z" fill="#FF7C1F"/>
</svg>
