<svg width="24" height="24" viewBox="0 0 24 24" fill="none" xmlns="http://www.w3.org/2000/svg">
<path d="M13.2616 12.6004H11.6351C11.3858 12.6006 11.1444 12.6875 10.9522 12.8462C10.76 13.0049 10.629 13.2256 10.5817 13.4703C10.5344 13.7151 10.5737 13.9686 10.693 14.1875C10.8122 14.4065 11.0038 14.5771 11.2351 14.6701L12.8864 15.3309C13.1176 15.424 13.3093 15.5946 13.4285 15.8135C13.5477 16.0324 13.587 16.286 13.5397 16.5307C13.4924 16.7755 13.3615 16.9961 13.1693 17.1548C12.9771 17.3136 12.7356 17.4005 12.4864 17.4006H10.8615M12.0615 12.6004V12.0004M12.0615 18.0007V17.4006M7.86133 9.00023H16.2617M14.9065 6.4289L16.0569 4.12799C16.1131 4.01537 16.1325 3.88793 16.1123 3.7637C16.0921 3.63947 16.0333 3.52473 15.9443 3.43573C15.8553 3.34673 15.7406 3.28797 15.6164 3.26777C15.4921 3.24756 15.3647 3.26694 15.2521 3.32315L13.732 4.08159C13.6012 4.14688 13.4511 4.16217 13.3098 4.12461C13.1686 4.08705 13.0459 3.9992 12.9648 3.87758L12.5624 3.26715C12.5076 3.18497 12.4333 3.11759 12.3462 3.07099C12.2591 3.02438 12.1619 3 12.0631 3C11.9644 3 11.8671 3.02438 11.78 3.07099C11.6929 3.11759 11.6187 3.18497 11.5639 3.26715L11.1567 3.87758C11.0756 3.9992 10.9529 4.08705 10.8116 4.12461C10.6704 4.16217 10.5202 4.14688 10.3895 4.08159L8.87178 3.32315C8.75913 3.2672 8.63176 3.24802 8.50763 3.2683C8.3835 3.28858 8.26886 3.34731 8.17988 3.43621C8.0909 3.5251 8.03206 3.63968 8.01165 3.76379C7.99124 3.8879 8.0103 4.01529 8.06614 4.12799L9.19419 6.3841" stroke="#FF7C1F" stroke-width="1.5" stroke-linecap="round" stroke-linejoin="round"/>
<path d="M8.1924 10.8003L5.98429 13.3604C5.44395 14.0628 5.11107 14.9024 5.02332 15.7843C4.93558 16.6661 5.09649 17.5549 5.48783 18.3499C5.87917 19.145 6.4853 19.8147 7.2376 20.283C7.9899 20.7514 8.8583 20.9997 9.74447 21H14.3767C15.2629 20.9997 16.1313 20.7514 16.8836 20.283C17.6359 19.8147 18.242 19.145 18.6333 18.3499C19.0247 17.5549 19.1856 16.6661 19.0979 15.7843C19.0101 14.9024 18.6772 14.0628 18.1369 13.3604L15.9288 10.8003" stroke="#FF7C1F" stroke-width="1.5" stroke-linecap="round" stroke-linejoin="round"/>
</svg>
