<svg width="26" height="26" viewBox="0 0 26 26" fill="none" xmlns="http://www.w3.org/2000/svg">
<path d="M16.75 4C15.1853 4 13.9167 5.24131 13.9167 6.76923C13.9167 8.61423 16.3958 11.1349 16.3958 13.6708H17.1042C17.1049 11.1349 19.5833 8.68692 19.5833 6.76923C19.5833 5.24131 18.3147 4 16.75 4ZM16.75 5.34169C16.9419 5.34178 17.1319 5.37882 17.3092 5.45067C17.4864 5.52253 17.6475 5.62781 17.7831 5.7605C17.9187 5.89319 18.0263 6.05069 18.0996 6.224C18.173 6.39732 18.2107 6.58306 18.2106 6.77062C18.2105 6.95817 18.1726 7.14388 18.0991 7.31712C18.0256 7.49037 17.9178 7.64777 17.7821 7.78032C17.6463 7.91288 17.4852 8.01801 17.3078 8.0897C17.1305 8.16139 16.9405 8.19824 16.7486 8.19815C16.3609 8.19797 15.9892 8.04728 15.7153 7.77924C15.4413 7.5112 15.2875 7.14777 15.2876 6.76888C15.2878 6.39 15.442 6.02671 15.7163 5.75893C15.9905 5.49115 16.3623 5.34151 16.75 5.34169ZM12.5 5.38462C7.81296 5.38462 4 9.11131 4 13.6923C4 18.2733 7.81296 22 12.5 22C17.187 22 21 18.2733 21 13.6923C21 12.3008 20.6472 10.9951 20.026 9.841C19.9318 10.0238 19.8369 10.1975 19.7385 10.3824C19.5522 10.7341 19.356 11.0892 19.1845 11.4423C19.3616 11.9373 19.4835 12.4607 19.5387 13H18.6094C18.5584 13.2319 18.5208 13.45 18.5208 13.6708V14.3846H19.5394C19.4429 15.3606 19.1332 16.3049 18.6313 17.1538H16.5517C16.7075 16.5045 16.7975 15.7865 16.8612 15.0555H15.4658C15.3989 15.7637 15.2734 16.4655 15.0904 17.1538H9.90963C9.67003 16.2478 9.529 15.3196 9.48887 14.3846H14.9785V13.6708C14.9729 13.4448 14.9432 13.22 14.8899 13H9.48958C9.52971 12.065 9.67074 11.1368 9.91033 10.2308H13.6957C13.4498 9.77741 13.2206 9.31557 13.0086 8.84615H10.397C10.9827 7.53977 11.757 6.76923 12.5 6.76923C12.5 6.28808 12.5885 5.836 12.7437 5.40608C12.6622 5.40331 12.5822 5.38462 12.5 5.38462ZM9.57812 7.39646C9.29617 7.85699 9.05902 8.34235 8.86979 8.84615H7.45312C8.06422 8.23932 8.78461 7.74786 9.57812 7.39646ZM6.36867 10.2308H8.44833C8.234 11.1402 8.10806 12.0674 8.07221 13H5.46058C5.55713 12.0241 5.86679 11.0797 6.36867 10.2308ZM5.46058 14.3846H8.07292C8.11471 15.3712 8.24504 16.3023 8.44904 17.1538H6.36867C5.86679 16.3049 5.55713 15.3606 5.46058 14.3846ZM7.45312 18.5385H8.86979C9.07379 19.0757 9.3125 19.5582 9.57812 19.9882C8.78461 19.6368 8.06422 19.1453 7.45312 18.5385ZM10.397 18.5385H14.603C14.0172 19.8448 13.243 20.6154 12.5 20.6154C11.757 20.6154 10.982 19.8448 10.397 18.5385ZM16.1302 18.5385H17.5469C16.9358 19.1453 16.2154 19.6368 15.4219 19.9882C15.6875 19.5589 15.9262 19.0764 16.1302 18.5385Z" fill="#FF7C1F"/>
</svg>
