<svg width="24" height="24" viewBox="0 0 24 24" fill="none" xmlns="http://www.w3.org/2000/svg">
<path d="M17.4 10.2V8.4H19.2V10.2H17.4ZM17.4 12V10.2H15.6V12H17.4ZM17.4 8.4V6.6H15.6V8.4H17.4ZM15.6 3.756V4.8H17.4C16.833 4.386 16.239 4.035 15.6 3.756ZM17.4 4.8V6.6H19.2C18.678 5.925 18.075 5.322 17.4 4.8ZM19.2 6.6V8.4H20.244C19.965 7.761 19.614 7.167 19.2 6.6ZM21 12C21 11.388 20.937 10.785 20.82 10.2H19.2V12H21ZM15.6 6.6V4.8H13.8V6.6H15.6ZM15.6 15.6H17.4V13.8H15.6V15.6ZM17.4 17.4H19.2V15.6H17.4V17.4ZM15.6 19.2H17.4V17.4H15.6V19.2ZM13.8 20.82C14.43 20.694 15.024 20.496 15.6 20.244V19.2H13.8V20.82ZM17.4 13.8H19.2V12H17.4V13.8ZM15.6 8.4H13.8V10.2H15.6V8.4ZM19.2 15.6H20.244C20.496 15.024 20.694 14.43 20.82 13.8H19.2V15.6ZM15.6 12H13.8V13.8H15.6V12ZM12 17.4V15.6H13.8V13.8H12V12H13.8V10.2H12V8.4H13.8V6.6H12V4.8H13.8V3.18C13.215 3.063 12.621 3 12 3C7.05 3 3 7.05 3 12C3 16.95 7.05 21 12 21V19.2H13.8V17.4H12ZM13.8 17.4H15.6V15.6H13.8V17.4Z" fill="#FF7C1F"/>
</svg>
