<svg width="110" height="111" viewBox="0 0 110 111" fill="none" xmlns="http://www.w3.org/2000/svg">
<path d="M49.9875 56.2434L49.2832 56.9476L49.6353 57.2998L54.9623 62.6267L60.2888 57.2998L60.6409 56.9476L59.9371 56.2434L59.585 56.5955L54.9623 61.2182L50.3396 56.5955L49.9875 56.2434ZM52.9726 47.2891L52.2683 47.9929L52.6204 48.345L54.9623 50.6874L57.3042 48.345L57.6563 47.9929L56.952 47.2891L56.5999 47.6412L54.9623 49.2793L53.3242 47.6412L52.9726 47.2891Z" fill="#CCCCCC"/>
<path d="M51.4797 51.5176L50.7754 52.2214L51.1275 52.5735L54.962 56.408L58.7959 52.5735L59.1481 52.2214L58.4442 51.5176L58.0921 51.8697L54.962 55.0003L51.8314 51.8697L51.4797 51.5176Z" fill="#CCCCCC"/>
<path d="M49.4457 17.7427C49.2314 17.7744 49.0355 17.7286 48.858 17.6055C48.6903 17.4809 48.5899 17.3066 48.5568 17.0825C48.5252 16.8682 48.5717 16.6772 48.6962 16.5095C48.8305 16.3403 49.0049 16.2399 49.2192 16.2083C49.4238 16.1781 49.61 16.2252 49.7777 16.3498C49.9551 16.4729 50.0597 16.6417 50.0913 16.856C50.1244 17.0801 50.0738 17.2767 49.9395 17.4459C49.8149 17.6136 49.6503 17.7125 49.4457 17.7427Z" fill="#A3A3A3"/>
<path d="M38.9437 24.2904C38.7714 24.3632 38.6071 24.3793 38.4508 24.3384C38.3036 24.2938 38.1955 24.1898 38.1264 24.0265C38.0727 23.8995 38.0527 23.7637 38.0663 23.6189C38.7103 23.3465 39.1639 23.0157 39.4269 22.6264C39.69 22.2372 39.8103 21.6998 39.7877 21.0143L39.758 20.3372L34.7929 15.3477L34.2351 15.5836C34.0899 15.6449 33.979 15.5849 33.9023 15.4035C33.8486 15.2765 33.851 15.1686 33.9097 15.0796C33.9735 14.9778 34.078 14.8961 34.2231 14.8348L36.5225 13.8623C36.6313 13.8163 36.7088 13.8477 36.7548 13.9566C36.7893 14.0382 36.7837 14.1261 36.738 14.2203C36.6976 14.3016 36.6267 14.3743 36.5256 14.4385L35.8735 14.9067L39.6028 18.7187C39.6569 18.7707 39.705 18.8466 39.7472 18.9464C39.7946 19.0332 39.8241 19.0903 39.8356 19.1175L39.89 19.0945C39.8785 19.0672 39.8562 19.0018 39.8231 18.8982C39.7899 18.7946 39.7709 18.7118 39.7661 18.6497L39.6093 13.3107L38.7658 13.6675C38.6206 13.7289 38.5097 13.6689 38.433 13.4874C38.3294 13.2425 38.4364 13.053 38.7538 12.9187L40.89 12.0153C40.9897 11.9731 41.0626 12.0064 41.1087 12.1153C41.17 12.2604 41.0936 12.4211 40.8794 12.5972L40.3906 12.9964L40.6119 20.6497C40.6324 21.5072 40.5137 22.2631 40.2558 22.9175C39.9979 23.5719 39.5605 24.0295 38.9437 24.2904Z" fill="#A3A3A3"/>
<path d="M32.8865 24.4517C32.3739 24.8013 31.8347 24.9546 31.2688 24.9114C30.7029 24.8683 30.2396 24.5823 29.8789 24.0534C29.4904 23.4839 29.4052 22.9221 29.6233 22.368C29.8359 21.8058 30.2424 21.2483 30.8429 20.6956L32.3888 19.2656L32.0226 18.7287C31.7506 18.33 31.4094 18.0919 30.9988 18.0143C30.5883 17.9367 30.1633 18.0478 29.724 18.3475C29.4718 18.5195 29.2175 18.7585 28.9613 19.0644C28.7132 19.3648 28.5318 19.6494 28.4172 19.9183L28.6859 20.5219C28.8061 20.7856 28.7808 20.9757 28.61 21.0922C28.553 21.1311 28.5 21.1494 28.4508 21.1472C28.396 21.1369 28.352 21.1073 28.3187 21.0585L27.5612 19.9479C27.7534 19.5307 28.0167 19.1127 28.3509 18.6939C28.6933 18.2696 29.0598 17.9243 29.4503 17.6579C30.0849 17.225 30.7221 17.0407 31.362 17.1049C32.0019 17.1691 32.5299 17.5063 32.9462 18.1165L35.3936 21.7044L35.9283 21.5184C36.0644 21.4733 36.1735 21.4584 36.2556 21.474C36.3403 21.4758 36.4077 21.5133 36.4576 21.5865C36.5242 21.6842 36.5128 21.7635 36.4233 21.8246L34.8856 22.8734L34.3029 22.0192L34.2541 22.0525C34.2398 22.5033 34.1215 22.9417 33.8993 23.3674C33.6716 23.785 33.334 24.1465 32.8865 24.4517ZM32.7426 23.6378C33.0436 23.4325 33.2853 23.1663 33.4676 22.8393C33.6443 22.5042 33.7348 22.1563 33.7392 21.7957C33.7435 21.4351 33.6458 21.1084 33.446 20.8155L32.7801 19.8392L31.4333 21.1155C31.0088 21.5243 30.733 21.9151 30.6058 22.2879C30.4731 22.6527 30.5289 23.014 30.7731 23.372C31.0172 23.7299 31.3171 23.9248 31.6725 23.9565C32.0279 23.9883 32.3846 23.882 32.7426 23.6378Z" fill="#A3A3A3"/>
<path d="M27.4085 33.5891C27.2996 33.703 27.174 33.692 27.0315 33.556C26.939 33.4676 26.8983 33.3675 26.9097 33.2558C26.9278 33.1369 26.9913 33.0205 27.1001 32.9066L27.4164 32.5754L20.9206 26.3726L20.4105 26.9068C20.3017 27.0208 20.176 27.0097 20.0336 26.8737C19.9339 26.7785 19.8932 26.6784 19.9117 26.5735C19.9299 26.4547 19.9934 26.3383 20.1022 26.2243L21.153 25.1239L21.8581 25.7972L21.8887 25.7652C21.8292 25.2998 21.8712 24.8565 22.0148 24.4353C22.158 24.0001 22.3962 23.608 22.7295 23.259C23.3756 22.5824 24.1343 22.2584 25.0057 22.287C25.8767 22.3017 26.7681 22.7444 27.6798 23.615C28.5559 24.4515 29.0078 25.3188 29.0355 26.2167C29.056 27.1078 28.699 27.938 27.9645 28.7072C27.7469 28.9352 27.4698 29.154 27.1333 29.3638C26.8108 29.5732 26.4871 29.7339 26.1623 29.8459L28.1816 31.7741L28.7888 31.3735C29.0083 31.2291 29.1822 31.2181 29.3104 31.3405C29.3959 31.4222 29.4012 31.5021 29.3264 31.5805L27.4085 33.5891ZM27.3186 28.3356C27.9103 27.7159 28.1638 27.0796 28.079 26.4268C27.9872 25.7672 27.5958 25.1075 26.9049 24.4478C26.1215 23.6997 25.4088 23.3051 24.767 23.2642C24.1181 23.2165 23.5522 23.4455 23.0693 23.9512C22.8109 24.2219 22.6266 24.5361 22.5164 24.8939C22.4131 25.2446 22.3967 25.5897 22.4672 25.9294C22.5306 26.2623 22.6834 26.5444 22.9255 26.7756L25.5965 29.3261C25.8805 29.2569 26.1875 29.1279 26.5175 28.9392C26.8475 28.7504 27.1145 28.5492 27.3186 28.3356Z" fill="#A3A3A3"/>
<path d="M20.5164 39.6539C20.2485 40.2136 19.8591 40.6168 19.348 40.8635C18.8369 41.1102 18.2926 41.0954 17.7152 40.8191C17.0933 40.5215 16.7376 40.0783 16.6482 39.4896C16.5498 38.8967 16.6216 38.2105 16.8636 37.431L17.4829 35.4182L16.8966 35.1376C16.4613 34.9293 16.0466 34.8947 15.6526 35.0336C15.2585 35.1726 14.9467 35.482 14.7172 35.9617C14.5854 36.2371 14.4855 36.5714 14.4174 36.9646C14.3536 37.3489 14.3396 37.6861 14.3754 37.9762L14.9107 38.3634C15.1471 38.5311 15.2206 38.7083 15.1314 38.8948C15.1016 38.957 15.0649 38.9995 15.0212 39.0223C14.9687 39.0408 14.9158 39.0373 14.8625 39.0118L13.6499 38.4315C13.6067 37.9741 13.6246 37.4805 13.7035 36.9505C13.7867 36.4117 13.9303 35.929 14.1344 35.5026C14.466 34.8097 14.9246 34.3304 15.5102 34.0648C16.0959 33.7992 16.7219 33.8258 17.3881 34.1446L21.3058 36.0194L21.675 35.5901C21.77 35.4827 21.8569 35.4152 21.9357 35.3874C22.0099 35.3464 22.087 35.3451 22.1669 35.3834C22.2735 35.4344 22.3035 35.5087 22.2567 35.6065L21.4532 37.2854L20.5205 36.8391L20.495 36.8924C20.7089 37.2895 20.8266 37.728 20.8481 38.2077C20.8608 38.6833 20.7502 39.1653 20.5164 39.6539ZM19.9834 39.0222C20.1407 38.6935 20.2161 38.342 20.2096 37.9677C20.1943 37.5892 20.098 37.2428 19.9207 36.9287C19.7435 36.6147 19.495 36.3811 19.1752 36.2281L18.1092 35.7179L17.585 37.4978C17.423 38.0644 17.3806 38.5409 17.4577 38.9272C17.526 39.3092 17.7556 39.5938 18.1465 39.7808C18.5374 39.9679 18.8945 39.9859 19.2178 39.835C19.5412 39.684 19.7964 39.4131 19.9834 39.0222Z" fill="#A3A3A3"/>
<path d="M18.2248 46.5047C18.0814 47.088 17.8218 47.5871 17.446 48.0017C17.0606 48.4141 16.5649 48.6978 15.9588 48.853C15.3454 48.9963 14.6371 48.9692 13.8338 48.7716C13.0879 48.5882 12.4669 48.2884 11.9708 47.8723C11.4771 47.4467 11.1432 46.9488 10.969 46.3786C10.7853 45.806 10.771 45.2041 10.9263 44.573C11.112 43.8174 11.506 43.1638 12.1082 42.6122L9.09575 41.8714L8.91937 42.5886C8.88174 42.7416 8.76729 42.7946 8.57602 42.7476C8.31781 42.6841 8.22986 42.485 8.31217 42.1503L8.67904 40.6584L18.1898 42.9972L18.4887 42.4622C18.5599 42.3377 18.6312 42.2538 18.7027 42.2106C18.767 42.1554 18.8422 42.1384 18.9283 42.1595C19.043 42.1877 19.0875 42.2545 19.0616 42.3597L18.6171 44.1671L17.6416 43.9273L17.6275 43.9846C17.9154 44.2988 18.1186 44.6683 18.2373 45.093C18.3583 45.5081 18.3542 45.9787 18.2248 46.5047ZM17.5854 46.0736C17.7195 45.5285 17.6566 45.0212 17.3968 44.5516C17.1298 44.0702 16.719 43.7612 16.1643 43.6248L12.8793 42.817C12.2528 43.2613 11.8526 43.8373 11.6785 44.545C11.568 44.9945 11.5828 45.4291 11.723 45.849C11.8655 46.2593 12.1344 46.6296 12.5298 46.9601C12.9276 47.2811 13.4516 47.5215 14.1019 47.6814C15.02 47.9072 15.7854 47.8875 16.3983 47.6224C17.0039 47.3454 17.3996 46.8291 17.5854 46.0736Z" fill="#A3A3A3"/>
<path d="M17.0144 58.0076C17.0115 58.1651 16.9116 58.2421 16.7147 58.2385C16.5867 58.2362 16.489 58.1901 16.4217 58.1002C16.3545 58.0005 16.3224 57.8719 16.3253 57.7144L16.3336 57.2565L10.4994 57.1507L10.486 57.8892C10.4831 58.0467 10.3832 58.1237 10.1863 58.1201C10.0485 58.1176 9.9508 58.0715 9.89333 57.9818C9.82619 57.8821 9.79404 57.7535 9.7969 57.5959L9.82423 56.0894L10.8581 56.1081L10.8589 56.0638C10.0864 55.2126 9.70815 54.3438 9.72422 53.4576C9.7369 52.7585 9.95413 52.1863 10.3759 51.7408C10.7878 51.2952 11.3434 51.0787 12.0425 51.0914L16.4439 51.1712L16.6193 50.4652C16.6832 50.2004 16.8037 50.0696 16.981 50.0729C17.0991 50.075 17.1572 50.1352 17.155 50.2533L17.1046 53.0301C17.1018 53.1876 17.0019 53.2646 16.805 53.261C16.6769 53.2587 16.5793 53.2126 16.512 53.1228C16.4448 53.023 16.4127 52.8944 16.4155 52.7369L16.4238 52.279L12.111 52.2008C11.6285 52.192 11.2419 52.3278 10.9512 52.6082C10.6508 52.8785 10.4958 53.2746 10.4864 53.7965C10.4794 54.1805 10.5807 54.5714 10.7901 54.9692C10.9898 55.3669 11.2688 55.7314 11.6272 56.063L16.3537 56.1487L16.529 55.4427C16.561 55.3054 16.6071 55.2077 16.6673 55.1497C16.7178 55.0817 16.7922 55.0486 16.8907 55.0504C17.0089 55.0525 17.0669 55.1127 17.0647 55.2308L17.0144 58.0076Z" fill="#A3A3A3"/>
<path d="M18.1543 63.287C18.2742 63.8957 18.2031 64.4518 17.9409 64.9551C17.6786 65.4584 17.2335 65.7719 16.6054 65.8957C15.9291 66.0289 15.379 65.8863 14.9553 65.4679C14.522 65.0514 14.1693 64.4583 13.8973 63.6888L13.1903 61.7052L12.5526 61.8308C12.0791 61.924 11.726 62.1441 11.4932 62.4911C11.2605 62.8381 11.1955 63.2725 11.2982 63.7943C11.3572 64.0938 11.477 64.4215 11.6575 64.7774C11.8361 65.1237 12.0265 65.4024 12.2287 65.6135L12.8893 65.6038C13.179 65.5969 13.3439 65.6949 13.3838 65.8979C13.3971 65.9655 13.3931 66.0215 13.3717 66.0659C13.3407 66.1121 13.2962 66.141 13.2382 66.1524L11.9193 66.4122C11.6112 66.0714 11.3304 65.6649 11.0769 65.1929C10.8214 64.7113 10.648 64.2385 10.5566 63.7747C10.4082 63.021 10.4893 62.3627 10.7999 61.7996C11.1106 61.2365 11.6283 60.8836 12.353 60.7409L16.6142 59.9015L16.6535 59.3367C16.6655 59.1938 16.6948 59.0877 16.7414 59.0183C16.7764 58.9411 16.8373 58.894 16.9243 58.8768C17.0402 58.854 17.1087 58.8957 17.1296 59.002L17.4893 60.8283L16.4748 61.0281L16.4862 61.0861C16.8951 61.2766 17.2516 61.5576 17.5557 61.9294C17.8501 62.303 18.0496 62.7555 18.1543 63.287ZM17.3495 63.0992C17.279 62.7417 17.1293 62.4148 16.9004 62.1187C16.6617 61.8244 16.3775 61.6043 16.0476 61.4585C15.7178 61.3127 15.3789 61.2741 15.0311 61.3426L13.8716 61.571L14.5154 63.3111C14.7244 63.8622 14.9752 64.2695 15.268 64.533C15.5512 64.7984 15.9053 64.8893 16.3305 64.8055C16.7556 64.7218 17.0527 64.5228 17.2216 64.2084C17.3906 63.8941 17.4332 63.5244 17.3495 63.0992Z" fill="#A3A3A3"/>
<path d="M21.5004 73.123C21.5665 73.2768 21.5045 73.3945 21.3145 73.4762C21.1969 73.5267 21.087 73.5203 20.9848 73.4571C20.8735 73.3977 20.7848 73.2911 20.7187 73.1372L20.5321 72.7029L12.4971 76.1552L12.6081 76.6381C12.6496 76.8346 12.6562 76.9872 12.6279 77.0958C12.5995 77.2045 12.5265 77.2841 12.4089 77.3346C12.3365 77.3657 12.2745 77.3709 12.2227 77.3503C12.1619 77.3335 12.1199 77.298 12.0965 77.2437L10.3879 73.2669C9.99524 72.353 9.92013 71.5171 10.1625 70.7591C10.4011 69.992 10.9592 69.4199 11.8369 69.0428C12.7146 68.6657 13.5138 68.6546 14.2344 69.0096C14.942 69.3594 15.4922 69.9913 15.8848 70.9052L16.7946 73.0225L20.052 71.6229L19.9233 70.8743C19.8934 70.7049 19.892 70.5769 19.9191 70.4903C19.9371 70.4075 19.9914 70.3467 20.0819 70.3078C20.1995 70.2572 20.2816 70.2863 20.3283 70.3948L21.5004 73.123ZM15.1811 71.2879C14.9089 70.6545 14.518 70.2437 14.0084 70.0553C13.4858 69.8618 12.9213 69.8953 12.3151 70.1558C11.6998 70.4202 11.287 70.8065 11.0767 71.3149C10.8534 71.8182 10.8778 72.3865 11.15 73.0199L12.0305 75.0694L16.0616 73.3374L15.1811 71.2879Z" fill="#A3A3A3"/>
<path d="M25.4445 78.4947C25.5794 78.6642 25.6381 78.8566 25.6206 79.0719C25.597 79.2795 25.4966 79.4538 25.3193 79.5948C25.1498 79.7297 24.9612 79.7854 24.7537 79.7618C24.54 79.7304 24.3657 79.63 24.2307 79.4605C24.102 79.2986 24.0494 79.1139 24.073 78.9064C24.0905 78.6911 24.184 78.516 24.3536 78.3811C24.5308 78.2401 24.7263 78.1852 24.94 78.2165C25.1476 78.2401 25.3157 78.3329 25.4445 78.4947Z" fill="#A3A3A3"/>
<path d="M36.3778 84.295C36.5274 84.4075 36.6236 84.5416 36.6667 84.6972C36.7019 84.847 36.6662 84.9927 36.5596 85.1343C36.4767 85.2445 36.3692 85.33 36.2372 85.3908C35.6785 84.9704 35.1648 84.744 34.6961 84.7117C34.2273 84.6794 33.7021 84.845 33.1205 85.2084L32.5497 85.5738L30.7244 92.3721L31.2083 92.7363C31.3342 92.831 31.3379 92.9571 31.2195 93.1145C31.1366 93.2246 31.042 93.2767 30.9356 93.2706C30.8155 93.2664 30.6924 93.217 30.5665 93.1222L28.5718 91.621C28.4774 91.55 28.4657 91.4672 28.5367 91.3728C28.59 91.302 28.6689 91.2627 28.7733 91.255C28.8639 91.2492 28.9623 91.274 29.0686 91.3293L29.8008 91.6585L31.2274 86.52C31.2453 86.4472 31.2868 86.3675 31.3519 86.2809C31.4033 86.1963 31.4378 86.1422 31.4556 86.1186L31.4084 86.0831C31.3906 86.1067 31.3452 86.1588 31.2722 86.2394C31.1992 86.3201 31.1371 86.3781 31.0858 86.4134L26.546 89.2275L27.2778 89.7782C27.4037 89.873 27.4074 89.999 27.289 90.1564C27.1291 90.3689 26.9115 90.3715 26.636 90.1642L24.7829 88.7696C24.6964 88.7044 24.6886 88.6247 24.7597 88.5302C24.8544 88.4043 25.0317 88.3898 25.2916 88.4868L25.8821 88.7093L32.3916 84.6784C33.1231 84.2305 33.8366 83.9539 34.532 83.8487C35.2275 83.7435 35.8428 83.8923 36.3778 84.295Z" fill="#A3A3A3"/>
<path d="M39.5562 89.4538C40.1157 89.7217 40.5188 90.1113 40.7654 90.6225C41.012 91.1337 40.997 91.6779 40.7205 92.2553C40.4228 92.8771 39.9795 93.2326 39.3908 93.3219C38.7978 93.4201 38.1116 93.3481 37.3322 93.1059L35.3196 92.486L35.0389 93.0723C34.8304 93.5075 34.7956 93.9222 34.9345 94.3162C35.0734 94.7103 35.3826 95.0222 35.8623 95.2519C36.1376 95.3838 36.4719 95.4838 36.8651 95.552C37.2494 95.6159 37.5866 95.63 37.8767 95.5942L38.2641 95.059C38.4318 94.8227 38.609 94.7492 38.7955 94.8385C38.8577 94.8683 38.9002 94.905 38.9229 94.9487C38.9414 95.0012 38.9379 95.0542 38.9124 95.1074L38.3318 96.3199C37.8744 96.3629 37.3808 96.3449 36.8508 96.2658C36.312 96.1825 35.8294 96.0387 35.4031 95.8346C34.7102 95.5028 34.2311 95.044 33.9656 94.4583C33.7002 93.8725 33.727 93.2466 34.046 92.5804L35.9218 88.6633L35.4927 88.294C35.3853 88.1989 35.3178 88.112 35.29 88.0332C35.2491 87.959 35.2478 87.8819 35.2861 87.802C35.3371 87.6954 35.4115 87.6655 35.5092 87.7123L37.188 88.5162L36.7413 89.4488L36.7946 89.4744C37.1918 89.2606 37.6303 89.143 38.1101 89.1216C38.5856 89.1091 39.0676 89.2198 39.5562 89.4538ZM38.9243 89.9865C38.5957 89.8291 38.2442 89.7536 37.8699 89.76C37.4913 89.7753 37.145 89.8715 36.8308 90.0486C36.5167 90.2257 36.283 90.4742 36.1299 90.794L35.6195 91.8598L37.3992 92.3845C37.9658 92.5467 38.4422 92.5892 38.8286 92.5122C39.2106 92.444 39.4953 92.2145 39.6824 91.8237C39.8696 91.4328 39.8877 91.0757 39.7368 90.7523C39.586 90.4289 39.3151 90.1737 38.9243 89.9865Z" fill="#A3A3A3"/>
<path d="M50.209 89.6082C50.3622 89.6452 50.4157 89.7594 50.3695 89.9509C50.3394 90.0753 50.2733 90.1607 50.1709 90.2069C50.059 90.2508 49.9265 90.2543 49.7733 90.2173L49.3281 90.1099L47.2213 98.8409L47.9393 99.0142C48.0925 99.0512 48.146 99.1654 48.0998 99.3569C48.0674 99.4909 48.0012 99.5762 47.9012 99.6129C47.7893 99.6568 47.6568 99.6603 47.5036 99.6233L46.0245 99.2664L46.2532 98.3186L46.2101 98.3082C45.8374 98.5931 45.4329 98.7792 44.9965 98.8663C44.5482 98.9608 44.0895 98.9514 43.6204 98.8382C42.7109 98.6188 42.05 98.1249 41.6376 97.3568C41.2133 96.5959 41.1491 95.6028 41.4448 94.3774C41.7289 93.1998 42.2524 92.3738 43.0153 91.8994C43.7758 91.4345 44.6731 91.3269 45.707 91.5764C46.0134 91.6503 46.3417 91.7802 46.692 91.966C47.035 92.1399 47.3364 92.3393 47.5962 92.5641L48.2511 89.85L47.5999 89.5257C47.3649 89.4082 47.2682 89.2633 47.3097 89.091C47.3375 88.9761 47.404 88.9313 47.5093 88.9568L50.209 89.6082ZM45.7096 92.3216C44.8767 92.1206 44.1991 92.2205 43.6769 92.6213C43.1524 93.0317 42.7781 93.7012 42.554 94.6298C42.2999 95.6829 42.3161 96.4973 42.6027 97.073C42.8869 97.6583 43.3689 98.0329 44.0487 98.1969C44.4124 98.2847 44.7767 98.2865 45.1415 98.2023C45.4967 98.1158 45.8035 97.9568 46.062 97.7254C46.3182 97.5035 46.4855 97.2299 46.564 96.9044L47.4304 93.3143C47.228 93.1034 46.9624 92.9025 46.6336 92.7117C46.3048 92.5209 45.9968 92.3909 45.7096 92.3216Z" fill="#A3A3A3"/>
<path d="M58.9135 92.5268C59.532 92.4777 60.0762 92.6123 60.546 92.9307C61.0159 93.2491 61.2761 93.7273 61.3268 94.3654C61.3813 95.0526 61.1764 95.5826 60.712 95.9554C60.2484 96.338 59.6188 96.6201 58.8231 96.8018L56.7713 97.2759L56.8227 97.9238C56.8609 98.4049 57.039 98.781 57.3569 99.0521C57.6748 99.3233 58.0988 99.4378 58.6289 99.3957C58.9333 99.3716 59.2726 99.2903 59.6469 99.1519C60.0114 99.0143 60.3101 98.8572 60.5431 98.6807L60.6095 98.0234C60.6359 97.7348 60.7523 97.5823 60.9584 97.5659C61.0272 97.5605 61.0823 97.5709 61.1239 97.5972C61.1663 97.6334 61.1898 97.6809 61.1945 97.7398L61.3009 99.0799C60.9269 99.3467 60.4909 99.5789 59.9929 99.7765C59.485 99.9749 58.9955 100.093 58.5242 100.13C57.7585 100.191 57.1138 100.035 56.5902 99.6613C56.0666 99.2879 55.7756 98.7331 55.7171 97.9968L55.3734 93.6673L54.8169 93.5633C54.6763 93.5349 54.5742 93.4936 54.5107 93.4394C54.438 93.3958 54.3982 93.3298 54.3912 93.2414C54.3819 93.1236 54.4312 93.0604 54.5392 93.0519L56.3947 92.9046L56.4765 93.9354L56.5354 93.9307C56.7716 93.5464 57.0919 93.2246 57.4961 92.9653C57.9011 92.7158 58.3736 92.5697 58.9135 92.5268ZM58.6345 93.3047C58.2712 93.3336 57.9293 93.4447 57.6088 93.6381C57.289 93.8413 57.0377 94.0983 56.8549 94.4092C56.6722 94.7201 56.5948 95.0522 56.6228 95.4057L56.7164 96.5838L58.519 96.1443C59.0905 96.0001 59.5239 95.7978 59.8194 95.5372C60.1156 95.2865 60.2466 94.9451 60.2123 94.5132C60.178 94.0812 60.0144 93.7632 59.7216 93.5593C59.4288 93.3553 59.0664 93.2704 58.6345 93.3047Z" fill="#A3A3A3"/>
<path d="M65.9882 91.0727C66.5648 90.9042 67.1267 90.8784 67.674 90.9955C68.224 91.122 68.7182 91.4084 69.1565 91.8549C69.5881 92.3135 69.92 92.9399 70.1521 93.7339C70.3677 94.4712 70.4199 95.1588 70.3088 95.7966C70.1883 96.4372 69.9251 96.9759 69.5192 97.4126C69.1161 97.8588 68.6026 98.1731 67.9787 98.3555C67.232 98.5738 66.4689 98.5609 65.6896 98.3167L66.5601 101.294L67.269 101.087C67.4203 101.043 67.5235 101.115 67.5788 101.304C67.6534 101.56 67.5253 101.736 67.1944 101.832L65.7198 102.263L62.9716 92.8627L62.3588 92.8725C62.2154 92.8734 62.1071 92.8538 62.0338 92.8136C61.9538 92.7857 61.9014 92.7292 61.8765 92.6441C61.8434 92.5307 61.8788 92.4588 61.9828 92.4284L63.7693 91.9061L64.0512 92.8703L64.1079 92.8537C64.2353 92.4471 64.4529 92.0859 64.7607 91.7702C65.0591 91.4572 65.4683 91.2247 65.9882 91.0727ZM65.9361 91.8421C65.3973 91.9996 64.99 92.3085 64.7141 92.7688C64.4315 93.2413 64.3704 93.7517 64.5307 94.3L65.4799 97.5469C66.1786 97.866 66.8776 97.9233 67.5771 97.7188C68.0214 97.5889 68.39 97.358 68.6829 97.0261C68.9663 96.697 69.1518 96.2785 69.2393 95.7707C69.3174 95.2656 69.2625 94.6917 69.0745 94.0489C68.8093 93.1415 68.4082 92.4892 67.8714 92.092C67.328 91.7071 66.6828 91.6238 65.9361 91.8421Z" fill="#A3A3A3"/>
<path d="M76.5479 86.3493C76.6856 86.2728 76.8024 86.3205 76.8981 86.4927C76.9603 86.6046 76.9694 86.7122 76.9254 86.8155C76.8729 86.9236 76.7777 87.016 76.64 87.0925L76.2397 87.3151L79.0751 92.415L79.7207 92.0561C79.8584 91.9795 79.9751 92.0273 80.0708 92.1995C80.1378 92.32 80.1469 92.4276 80.0982 92.5223C80.0456 92.6304 79.9504 92.7227 79.8127 92.7993L78.4958 93.5315L77.9933 92.6277L77.9546 92.6492C77.6058 93.7446 77.044 94.5076 76.2694 94.9383C75.6582 95.278 75.0542 95.3772 74.4573 95.2359C73.8651 95.1031 73.3992 94.7311 73.0594 94.12L70.9203 90.2724L70.2216 90.475C69.9605 90.5525 69.7869 90.5138 69.7007 90.3589C69.6433 90.2556 69.6662 90.1753 69.7695 90.1178L72.1968 88.7684C72.3346 88.6918 72.4513 88.7396 72.547 88.9117C72.6092 89.0236 72.6183 89.1312 72.5743 89.2346C72.5218 89.3427 72.4266 89.435 72.2889 89.5116L71.8887 89.7341L73.9847 93.5042C74.2192 93.9259 74.5306 94.1922 74.919 94.3031C75.3036 94.4273 75.7239 94.3626 76.1801 94.109C76.5158 93.9224 76.8032 93.6386 77.0422 93.2579C77.286 92.8857 77.4614 92.4614 77.5684 91.985L75.2714 87.8534L74.5727 88.0559C74.4378 88.0971 74.3302 88.1062 74.2499 88.0833C74.1657 88.0738 74.0997 88.026 74.0518 87.9399C73.9944 87.8366 74.0173 87.7562 74.1206 87.6988L76.5479 86.3493Z" fill="#A3A3A3"/>
<path d="M80.542 82.7153C81.0085 82.3061 81.5252 82.0887 82.0921 82.063C82.6591 82.0374 83.1536 82.2651 83.5757 82.7464C84.0303 83.2647 84.1829 83.812 84.0335 84.3884C83.8906 84.9723 83.5546 85.5749 83.0254 86.1962L81.664 87.8029L82.0926 88.2916C82.4108 88.6544 82.7784 88.8494 83.1954 88.8767C83.6123 88.904 84.0207 88.7423 84.4205 88.3916C84.65 88.1903 84.8734 87.9223 85.0907 87.5876C85.3006 87.2594 85.4462 86.9549 85.5274 86.6741L85.1876 86.1075C85.0363 85.8603 85.0384 85.6685 85.1939 85.5321C85.2457 85.4867 85.2962 85.4621 85.3453 85.4583C85.4009 85.4619 85.4481 85.486 85.4871 85.5304L86.3735 86.541C86.2332 86.9785 86.0225 87.4253 85.7414 87.8814C85.4529 88.3441 85.131 88.7312 84.7756 89.043C84.1981 89.5495 83.5879 89.8096 82.945 89.8234C82.302 89.8371 81.737 89.5663 81.25 89.011L78.3861 85.746L77.8778 85.9953C77.7482 86.0566 77.6416 86.0845 77.5583 86.0791C77.474 86.0875 77.4026 86.0584 77.3441 85.9918C77.2662 85.9029 77.268 85.8228 77.3494 85.7514L78.7487 84.524L79.4306 85.3014L79.475 85.2624C79.4347 84.8132 79.499 84.3637 79.668 83.9142C79.8435 83.4721 80.1348 83.0724 80.542 82.7153ZM80.7834 83.5057C80.5095 83.746 80.3018 84.0395 80.1605 84.3861C80.0256 84.7402 79.9779 85.0965 80.0172 85.455C80.0566 85.8134 80.1931 86.126 80.4269 86.3925L81.2062 87.281L82.3885 85.851C82.7604 85.3938 82.9869 84.9724 83.0679 84.5869C83.1555 84.2088 83.0564 83.8569 82.7707 83.5311C82.4849 83.2054 82.1637 83.0482 81.8071 83.0598C81.4504 83.0713 81.1092 83.22 80.7834 83.5057Z" fill="#A3A3A3"/>
<path d="M87.3714 74.8861C87.4713 74.7518 87.6042 74.7463 87.7702 74.8697C87.8729 74.9461 87.9226 75.0444 87.9191 75.1646C87.9236 75.2906 87.8758 75.4208 87.7759 75.5551L87.4938 75.9345L94.5113 81.1532L94.8733 80.815C95.0224 80.6804 95.1511 80.5981 95.2593 80.5682C95.3675 80.5382 95.473 80.5614 95.5757 80.6378C95.639 80.6848 95.6746 80.7359 95.6827 80.791C95.6987 80.852 95.6891 80.9062 95.6538 80.9536L93.0709 84.4268C92.4773 85.2249 91.7919 85.7093 91.0145 85.8799C90.2313 86.0583 89.4565 85.8625 88.6899 85.2925C87.9234 84.7224 87.5129 84.0366 87.4584 83.2352C87.406 82.4475 87.6765 81.6546 88.2701 80.8565L89.6453 79.0073L86.8004 76.8916L86.2174 77.3785C86.0859 77.4893 85.9759 77.5548 85.8873 77.5748C85.8067 77.6007 85.7268 77.5843 85.6478 77.5256C85.5451 77.4492 85.5289 77.3635 85.5995 77.2687L87.3714 74.8861ZM88.9543 81.2733C88.5429 81.8264 88.3836 82.3707 88.4764 82.9061C88.5712 83.4552 88.8833 83.9267 89.4128 84.3205C89.9502 84.7201 90.4915 84.8833 91.0368 84.8102C91.5841 84.7509 92.0635 84.4446 92.4749 83.8915L93.806 82.1015L90.2854 79.4833L88.9543 81.2733Z" fill="#A3A3A3"/>
<path d="M90.0391 68.7781C90.1181 68.5764 90.2551 68.429 90.4501 68.3362C90.6415 68.2525 90.8426 68.2519 91.0536 68.3345C91.2553 68.4134 91.3981 68.5486 91.4818 68.7401C91.5619 68.9406 91.5624 69.1418 91.4835 69.3436C91.4081 69.5361 91.2747 69.6743 91.0833 69.758C90.8883 69.8509 90.6899 69.8578 90.4881 69.7788C90.2772 69.6963 90.1317 69.5547 90.0516 69.3541C89.9679 69.1627 89.9637 68.9707 90.0391 68.7781Z" fill="#A3A3A3"/>
<path d="M89.5723 56.4105C89.5947 56.2247 89.6624 56.0741 89.7754 55.9588C89.8873 55.8532 90.0312 55.811 90.2072 55.8321C90.3441 55.8486 90.472 55.8987 90.5909 55.9824C90.5075 56.6766 90.5694 57.2346 90.7766 57.6562C90.9838 58.0779 91.3905 58.4492 91.9967 58.77L92.5992 59.0805L99.3957 57.2489L99.468 56.6475C99.4868 56.4911 99.594 56.4246 99.7895 56.4481C99.9264 56.4646 100.019 56.5203 100.067 56.6154C100.124 56.7214 100.143 56.8526 100.124 57.009L99.8259 59.4877C99.8118 59.6051 99.7461 59.6567 99.6288 59.6426C99.5408 59.632 99.4673 59.5835 99.4082 59.4971C99.3578 59.4216 99.3298 59.324 99.3244 59.2043L99.2418 58.4058L94.081 59.7495C94.0091 59.7707 93.9193 59.7747 93.8117 59.7618C93.7128 59.7598 93.6486 59.7571 93.6193 59.7536L93.6123 59.8122C93.6416 59.8158 93.7095 59.8289 93.8158 59.8516C93.9222 59.8743 94.0036 59.8989 94.0599 59.9255L98.7717 62.4409L98.881 61.5316C98.8998 61.3752 99.007 61.3087 99.2025 61.3322C99.4665 61.3639 99.578 61.5509 99.5369 61.8931L99.2601 64.1958C99.2472 64.3034 99.1821 64.3501 99.0647 64.336C98.9083 64.3172 98.8068 64.1711 98.7603 63.8977L98.6566 63.2752L91.9038 59.6664C91.1494 59.2584 90.5523 58.7799 90.1124 58.2311C89.6724 57.6822 89.4924 57.0754 89.5723 56.4105Z" fill="#A3A3A3"/>
<path d="M92.4396 51.0729C92.3907 50.4543 92.5255 49.9102 92.844 49.4405C93.1625 48.9707 93.6408 48.7106 94.279 48.6601C94.9662 48.6058 95.4961 48.8108 95.8688 49.2753C96.2512 49.739 96.5332 50.3687 96.7146 51.1645L97.1881 53.2164L97.8361 53.1652C98.3172 53.1271 98.6933 52.9492 98.9645 52.6314C99.2358 52.3136 99.3504 51.8896 99.3085 51.3594C99.2844 51.0551 99.2032 50.7157 99.065 50.3414C98.9275 49.9769 98.7705 49.6781 98.594 49.4451L97.9367 49.3785C97.6481 49.3519 97.4957 49.2356 97.4793 49.0294C97.4739 48.9607 97.4844 48.9055 97.5107 48.8639C97.5469 48.8215 97.5944 48.798 97.6533 48.7933L98.9934 48.6874C99.2601 49.0614 99.4922 49.4975 99.6896 49.9956C99.8879 50.5035 100.006 50.9931 100.043 51.4643C100.103 52.2301 99.947 52.8748 99.5735 53.3982C99.2 53.9217 98.645 54.2126 97.9087 54.2708L93.5791 54.6133L93.475 55.1698C93.4466 55.3104 93.4053 55.4124 93.351 55.476C93.3074 55.5486 93.2413 55.5884 93.153 55.5954C93.0352 55.6047 92.972 55.5554 92.9635 55.4474L92.8167 53.5918L93.8476 53.5103L93.8429 53.4514C93.4587 53.215 93.137 52.8947 92.8778 52.4904C92.6284 52.0853 92.4824 51.6128 92.4396 51.0729ZM93.2175 51.3522C93.2462 51.7154 93.3572 52.0573 93.5505 52.3779C93.7536 52.6978 94.0106 52.9491 94.3215 53.132C94.6323 53.3149 94.9644 53.3923 95.3179 53.3644L96.496 53.2712L96.057 51.4684C95.913 50.8969 95.7108 50.4634 95.4503 50.1679C95.1997 49.8716 94.8584 49.7405 94.4264 49.7747C93.9944 49.8089 93.6764 49.9723 93.4723 50.2651C93.2683 50.5578 93.1833 50.9202 93.2175 51.3522Z" fill="#A3A3A3"/>
<path d="M87.2292 41.7806C87.1844 41.6296 87.2563 41.526 87.4451 41.4699C87.5679 41.4334 87.6749 41.4479 87.7662 41.5132C87.8603 41.588 87.9298 41.7009 87.9747 41.852L88.1051 42.2909L96.7149 39.7332L96.5046 39.0252C96.4597 38.8741 96.5317 38.7706 96.7205 38.7145C96.8526 38.6752 96.9597 38.6897 97.0415 38.7578C97.1357 38.8326 97.2052 38.9455 97.25 39.0965L97.6833 40.5551L96.7487 40.8327L96.7613 40.8752C97.1948 41.0547 97.5587 41.3113 97.853 41.6451C98.1596 41.9855 98.3816 42.387 98.5191 42.8496C98.7855 43.7464 98.6899 44.5659 98.2323 45.308C97.7869 46.0567 96.96 46.6106 95.7517 46.9695C94.5905 47.3145 93.6133 47.276 92.8202 46.8541C92.0365 46.4294 91.4932 45.7073 91.1903 44.6877C91.1006 44.3856 91.0482 44.0364 91.0333 43.6402C91.0117 43.2562 91.0329 42.8955 91.097 42.5579L88.4206 43.353L88.4668 44.079C88.4831 44.3413 88.4062 44.4977 88.2363 44.5481C88.123 44.5818 88.0509 44.5467 88.0201 44.4428L87.2292 41.7806ZM91.8337 44.3116C92.0777 45.1329 92.5041 45.6689 93.1128 45.9196C93.7309 46.1675 94.4978 46.1554 95.4136 45.8834C96.452 45.5749 97.1484 45.1522 97.5026 44.6155C97.8663 44.076 97.9486 43.4711 97.7495 42.8008C97.6429 42.4421 97.4617 42.126 97.2058 41.8527C96.9528 41.5889 96.6614 41.4032 96.3315 41.2957C96.0111 41.1854 95.6904 41.178 95.3694 41.2733L91.8292 42.325C91.7482 42.6059 91.7077 42.9364 91.7077 43.3166C91.7076 43.6967 91.7496 44.0284 91.8337 44.3116Z" fill="#A3A3A3"/>
<path d="M85.3872 32.7873C85.0344 32.2769 84.8779 31.7387 84.9176 31.1725C84.9573 30.6064 85.2404 30.1413 85.767 29.7774C86.3341 29.3854 86.8954 29.2968 87.4508 29.5115C88.0143 29.7206 88.5743 30.1237 89.1307 30.7208L90.5701 32.2579L91.1048 31.8884C91.5018 31.614 91.7378 31.2713 91.8129 30.8603C91.888 30.4492 91.7743 30.025 91.472 29.5875C91.2984 29.3364 91.0578 29.0836 90.7503 28.8292C90.4484 28.583 90.1627 28.4033 89.8931 28.2904L89.2912 28.5627C89.0282 28.6846 88.838 28.6605 88.7204 28.4904C88.6812 28.4336 88.6626 28.3807 88.6645 28.3315C88.6745 28.2767 88.7038 28.2325 88.7524 28.1989L89.8583 27.4346C90.2767 27.6242 90.6963 27.8849 91.1171 28.2166C91.5435 28.5564 91.891 28.9207 92.1598 29.3096C92.5966 29.9416 92.7848 30.5776 92.7245 31.2179C92.6642 31.8581 92.3302 32.3883 91.7226 32.8082L88.1498 35.2775L88.3391 35.8112C88.385 35.947 88.4005 36.056 88.3855 36.1382C88.3842 36.2229 88.3471 36.2905 88.2742 36.3409C88.177 36.408 88.0975 36.3971 88.036 36.308L86.9777 34.7768L87.8283 34.1888L87.7947 34.1402C87.3438 34.1287 86.9048 34.0131 86.4777 33.7935C86.0587 33.5683 85.6952 33.2329 85.3872 32.7873ZM86.2001 32.6385C86.4073 32.9383 86.675 33.1783 87.0031 33.3585C87.3393 33.5332 87.6877 33.6216 88.0483 33.6238C88.409 33.6259 88.7351 33.5262 89.0268 33.3246L89.999 32.6527L88.7144 31.3138C88.3031 30.8918 87.9106 30.6183 87.5369 30.4935C87.1714 30.363 86.8104 30.421 86.454 30.6673C86.0975 30.9137 85.9045 31.2147 85.8749 31.5703C85.8454 31.926 85.9538 32.282 86.2001 32.6385Z" fill="#A3A3A3"/>
<path d="M80.5793 27.3964C80.1442 26.9822 79.84 26.509 79.6667 25.9769C79.5002 25.4376 79.5001 24.8664 79.6664 24.2633C79.8466 23.6598 80.2219 23.0584 80.7923 22.4593C81.322 21.9029 81.8906 21.5128 82.4981 21.2889C83.1127 21.0718 83.7107 21.0292 84.2921 21.1612C84.8803 21.2861 85.4098 21.5726 85.8806 22.0208C86.4441 22.5573 86.8157 23.2238 86.9955 24.0205L89.1346 21.7737L88.5996 21.2644C88.4855 21.1557 88.4963 21.0301 88.6321 20.8874C88.8155 20.6948 89.032 20.7174 89.2816 20.9551L90.3943 22.0144L83.641 29.1079L83.9569 29.633C84.0296 29.7566 84.067 29.8602 84.0691 29.9438C84.085 30.027 84.0625 30.1007 84.0014 30.1648C83.9199 30.2504 83.8399 30.2559 83.7614 30.1812L82.4133 28.8978L83.106 28.1702L83.0632 28.1295C82.6475 28.2233 82.2259 28.2162 81.7984 28.1083C81.3779 28.0072 80.9716 27.7699 80.5793 27.3964ZM81.271 27.0555C81.6775 27.4425 82.1491 27.6399 82.6856 27.6477C83.2361 27.655 83.7083 27.4519 84.1022 27.0382L86.4348 24.5881C86.3602 23.8236 86.0591 23.1902 85.5313 22.6877C85.196 22.3685 84.8114 22.1655 84.3774 22.0786C83.9505 21.9986 83.4954 22.0481 83.0122 22.2271C82.5361 22.413 82.0672 22.7484 81.6054 23.2334C80.9535 23.9182 80.5905 24.5923 80.5162 25.2559C80.4559 25.9192 80.7075 26.519 81.271 27.0555Z" fill="#A3A3A3"/>
<path d="M71.1969 20.632C71.0615 20.5513 71.0443 20.4264 71.1452 20.2572C71.2108 20.1473 71.2993 20.0854 71.4108 20.0716C71.5306 20.0628 71.6583 20.0988 71.7936 20.1796L72.1869 20.4142L75.1761 15.4029L74.5418 15.0245C74.4065 14.9438 74.3892 14.8188 74.4901 14.6497C74.5608 14.5312 74.6493 14.4694 74.7557 14.464C74.8756 14.4553 75.0032 14.4913 75.1385 14.572L76.4326 15.3439L75.9028 16.232L75.9409 16.2547C77.0634 16.0069 78.0053 16.11 78.7665 16.5641C79.367 16.9223 79.7558 17.395 79.933 17.9823C80.1152 18.5612 80.0272 19.1509 79.669 19.7514L77.4138 23.532L77.9396 24.0349C78.1377 24.2218 78.1913 24.3914 78.1005 24.5437C78.0399 24.6452 77.9589 24.6656 77.8574 24.6051L75.4723 23.1824C75.337 23.1016 75.3198 22.9767 75.4207 22.8075C75.4863 22.6976 75.5748 22.6357 75.6862 22.6219C75.8061 22.6132 75.9337 22.6491 76.069 22.7299L76.4623 22.9645L78.6721 19.2599C78.9193 18.8455 78.9934 18.4425 78.8945 18.0509C78.809 17.6559 78.5421 17.3247 78.0939 17.0573C77.764 16.8605 77.3744 16.7543 76.9251 16.7386C76.4809 16.7144 76.0258 16.7755 75.5601 16.922L73.1384 20.9817L73.6641 21.4845C73.7674 21.5805 73.8293 21.6691 73.8497 21.7501C73.8837 21.8277 73.8755 21.9088 73.825 21.9933C73.7645 22.0948 73.6835 22.1153 73.582 22.0548L71.1969 20.632Z" fill="#A3A3A3"/>
<path d="M66.0484 18.9997C65.4605 18.8014 65.0132 18.4635 64.7065 17.9859C64.3999 17.5084 64.3488 16.9663 64.5534 16.3597C64.7736 15.7065 65.1706 15.2999 65.7442 15.1399C66.3209 14.9707 67.0108 14.959 67.8137 15.1051L69.8866 15.4767L70.0943 14.8608C70.2485 14.4035 70.2328 13.9877 70.0472 13.6133C69.8617 13.2389 69.5169 12.9668 69.013 12.7969C68.7237 12.6993 68.3798 12.6405 67.9812 12.6204C67.592 12.6035 67.2555 12.6304 66.9719 12.701L66.6522 13.2792C66.5143 13.5341 66.3474 13.6285 66.1514 13.5624C66.0861 13.5404 66.0394 13.5091 66.0116 13.4685C65.9868 13.4186 65.9839 13.3656 66.0028 13.3096L66.4323 12.0358C66.8811 11.9377 67.3733 11.8958 67.9089 11.9101C68.4539 11.9276 68.9503 12.0118 69.3983 12.1629C70.1262 12.4083 70.6573 12.8057 70.9918 13.355C71.3262 13.9043 71.3754 14.5289 71.1394 15.2288L69.7517 19.3442L70.2224 19.6588C70.3405 19.7402 70.4181 19.8183 70.4552 19.8932C70.5048 19.9619 70.5154 20.0382 70.4871 20.1222C70.4493 20.2342 70.3791 20.2729 70.2765 20.2383L68.5127 19.6435L68.8431 18.6637L68.7871 18.6448C68.4187 18.9051 67.9977 19.0749 67.5241 19.1543C67.0535 19.2243 66.5617 19.1727 66.0484 18.9997ZM66.6111 18.3943C66.9564 18.5107 67.3144 18.5431 67.6852 18.4915C68.0591 18.4305 68.3913 18.2931 68.6816 18.0792C68.972 17.8653 69.1739 17.5904 69.2871 17.2544L69.6647 16.1346L67.8346 15.8292C67.2525 15.7369 66.7744 15.7524 66.4003 15.8756C66.0293 15.9896 65.7745 16.2519 65.6361 16.6625C65.4976 17.0731 65.5229 17.4298 65.7118 17.7325C65.9007 18.0353 66.2005 18.2559 66.6111 18.3943Z" fill="#A3A3A3"/>
<path d="M55.8503 17.0191C55.6839 17.0001 55.6125 16.8878 55.636 16.6824C55.6506 16.5552 55.7107 16.4629 55.8164 16.4056C55.9232 16.3385 56.0597 16.3145 56.2261 16.3335L56.6957 16.3873L57.6897 7.69865L57.2154 7.55518C57.0242 7.49366 56.8885 7.42362 56.8083 7.34505C56.7281 7.26648 56.6952 7.1636 56.7098 7.0364C56.7187 6.95813 56.745 6.90166 56.7886 6.867C56.8334 6.82255 56.8851 6.80369 56.9438 6.81041L61.2441 7.30235C62.2323 7.41541 62.9952 7.76536 63.5327 8.35222C64.08 8.94019 64.2994 9.70873 64.1908 10.6578C64.0822 11.6069 63.695 12.3061 63.029 12.7552C62.374 13.1957 61.5523 13.3595 60.5641 13.2464L58.2745 12.9845L57.8715 16.5069L58.5852 16.767C58.7471 16.8252 58.8589 16.8875 58.9207 16.954C58.9836 17.0108 59.0094 17.0881 58.9982 17.186C58.9837 17.3132 58.9177 17.37 58.8003 17.3566L55.8503 17.0191ZM60.5814 12.4455C61.2663 12.5238 61.817 12.3886 62.2336 12.0398C62.6611 11.6822 62.9123 11.1757 62.9873 10.5201C63.0634 9.8548 62.9331 9.30461 62.5963 8.86958C62.2704 8.42588 61.7649 8.16486 61.08 8.0865L58.8638 7.83297L58.3652 12.192L60.5814 12.4455Z" fill="#A3A3A3"/>
</svg>
