<svg width="351" height="371" viewBox="0 0 351 371" fill="none" xmlns="http://www.w3.org/2000/svg">
<path d="M90.1976 136.456V154H87.1256V136.456H90.1976ZM96.5826 154H93.6546V142.144H96.3426L96.5826 143.536C97.1826 142.552 98.3826 141.784 100.087 141.784C101.887 141.784 103.135 142.672 103.759 144.04C104.359 142.672 105.751 141.784 107.551 141.784C110.431 141.784 112.015 143.512 112.015 146.248V154H109.111V147.016C109.111 145.312 108.199 144.424 106.807 144.424C105.391 144.424 104.311 145.336 104.311 147.28V154H101.383V146.992C101.383 145.336 100.495 144.448 99.1026 144.448C97.7106 144.448 96.5826 145.36 96.5826 147.28V154ZM118.417 154.312C115.897 154.312 114.361 152.848 114.361 150.616C114.361 148.432 115.945 147.064 118.753 146.848L122.305 146.584V146.32C122.305 144.712 121.345 144.064 119.857 144.064C118.129 144.064 117.169 144.784 117.169 146.032H114.673C114.673 143.464 116.785 141.784 120.001 141.784C123.193 141.784 125.161 143.512 125.161 146.8V154H122.593L122.377 152.248C121.873 153.472 120.265 154.312 118.417 154.312ZM119.377 152.104C121.177 152.104 122.329 151.024 122.329 149.2V148.576L119.857 148.768C118.033 148.936 117.337 149.536 117.337 150.496C117.337 151.576 118.057 152.104 119.377 152.104ZM127.365 147.808C127.365 144.352 129.621 141.76 133.005 141.76C134.781 141.76 136.173 142.504 136.869 143.776L137.037 142.144H139.749V153.4C139.749 157.36 137.373 159.832 133.533 159.832C130.125 159.832 127.797 157.888 127.437 154.72H130.365C130.557 156.256 131.733 157.168 133.533 157.168C135.549 157.168 136.845 155.896 136.845 153.928V151.96C136.101 153.064 134.637 153.76 132.933 153.76C129.573 153.76 127.365 151.24 127.365 147.808ZM130.317 147.736C130.317 149.728 131.589 151.216 133.509 151.216C135.525 151.216 136.773 149.8 136.773 147.736C136.773 145.72 135.549 144.328 133.509 144.328C131.565 144.328 130.317 145.792 130.317 147.736ZM144.244 139.768C143.236 139.768 142.444 138.976 142.444 137.992C142.444 137.008 143.236 136.24 144.244 136.24C145.204 136.24 145.996 137.008 145.996 137.992C145.996 138.976 145.204 139.768 144.244 139.768ZM142.78 154V142.144H145.708V154H142.78ZM151.661 154H148.733V142.144H151.445L151.685 143.68C152.429 142.48 153.869 141.784 155.477 141.784C158.453 141.784 159.989 143.632 159.989 146.704V154H157.061V147.4C157.061 145.408 156.077 144.448 154.565 144.448C152.765 144.448 151.661 145.696 151.661 147.616V154ZM168.17 154.312C164.642 154.312 162.17 151.744 162.17 148.072C162.17 144.352 164.594 141.784 168.074 141.784C171.626 141.784 173.882 144.16 173.882 147.856V148.744L164.954 148.768C165.17 150.856 166.274 151.912 168.218 151.912C169.826 151.912 170.882 151.288 171.218 150.16H173.93C173.426 152.752 171.266 154.312 168.17 154.312ZM168.098 144.184C166.37 144.184 165.314 145.12 165.026 146.896H170.978C170.978 145.264 169.85 144.184 168.098 144.184ZM186.726 154H183.798V144.592H181.518V142.144H183.798V138.448H186.726V142.144H189.03V144.592H186.726V154ZM190.037 148.048C190.037 144.352 192.701 141.808 196.373 141.808C200.045 141.808 202.709 144.352 202.709 148.048C202.709 151.744 200.045 154.288 196.373 154.288C192.701 154.288 190.037 151.744 190.037 148.048ZM192.965 148.048C192.965 150.208 194.357 151.672 196.373 151.672C198.389 151.672 199.781 150.208 199.781 148.048C199.781 145.888 198.389 144.424 196.373 144.424C194.357 144.424 192.965 145.888 192.965 148.048ZM205.03 159.496V142.144H207.742L207.934 143.944C208.654 142.576 210.214 141.784 212.014 141.784C215.35 141.784 217.558 144.208 217.558 147.928C217.558 151.624 215.542 154.312 212.014 154.312C210.238 154.312 208.702 153.616 207.958 152.416V159.496H205.03ZM207.982 148.072C207.982 150.208 209.302 151.672 211.318 151.672C213.382 151.672 214.606 150.184 214.606 148.072C214.606 145.96 213.382 144.448 211.318 144.448C209.302 144.448 207.982 145.936 207.982 148.072ZM219.889 159.496V142.144H222.601L222.793 143.944C223.513 142.576 225.073 141.784 226.873 141.784C230.209 141.784 232.417 144.208 232.417 147.928C232.417 151.624 230.401 154.312 226.873 154.312C225.097 154.312 223.561 153.616 222.817 152.416V159.496H219.889ZM222.841 148.072C222.841 150.208 224.161 151.672 226.177 151.672C228.241 151.672 229.465 150.184 229.465 148.072C229.465 145.96 228.241 144.448 226.177 144.448C224.161 144.448 222.841 145.936 222.841 148.072ZM236.212 139.768C235.204 139.768 234.412 138.976 234.412 137.992C234.412 137.008 235.204 136.24 236.212 136.24C237.172 136.24 237.964 137.008 237.964 137.992C237.964 138.976 237.172 139.768 236.212 139.768ZM234.748 154V142.144H237.676V154H234.748ZM243.629 154H240.701V142.144H243.413L243.653 143.68C244.397 142.48 245.837 141.784 247.445 141.784C250.421 141.784 251.957 143.632 251.957 146.704V154H249.029V147.4C249.029 145.408 248.045 144.448 246.533 144.448C244.733 144.448 243.629 145.696 243.629 147.616V154ZM254.162 147.808C254.162 144.352 256.418 141.76 259.802 141.76C261.578 141.76 262.97 142.504 263.666 143.776L263.834 142.144H266.546V153.4C266.546 157.36 264.17 159.832 260.33 159.832C256.922 159.832 254.594 157.888 254.234 154.72H257.162C257.354 156.256 258.53 157.168 260.33 157.168C262.346 157.168 263.642 155.896 263.642 153.928V151.96C262.898 153.064 261.434 153.76 259.73 153.76C256.37 153.76 254.162 151.24 254.162 147.808ZM257.114 147.736C257.114 149.728 258.386 151.216 260.306 151.216C262.322 151.216 263.57 149.8 263.57 147.736C263.57 145.72 262.346 144.328 260.306 144.328C258.362 144.328 257.114 145.792 257.114 147.736ZM98.554 176.144H101.482V188H98.77L98.554 186.416C97.834 187.544 96.298 188.312 94.714 188.312C91.978 188.312 90.37 186.464 90.37 183.56V176.144H93.298V182.528C93.298 184.784 94.186 185.696 95.818 185.696C97.666 185.696 98.554 184.616 98.554 182.36V176.144ZM104.506 193.496V176.144H107.218L107.41 177.944C108.13 176.576 109.69 175.784 111.49 175.784C114.826 175.784 117.034 178.208 117.034 181.928C117.034 185.624 115.018 188.312 111.49 188.312C109.714 188.312 108.178 187.616 107.434 186.416V193.496H104.506ZM107.458 182.072C107.458 184.208 108.778 185.672 110.794 185.672C112.858 185.672 114.082 184.184 114.082 182.072C114.082 179.96 112.858 178.448 110.794 178.448C108.778 178.448 107.458 179.936 107.458 182.072ZM124.802 193.496V191.048H126.554C127.706 191.048 128.426 190.784 128.93 189.392L129.266 188.504L124.49 176.144H127.586L130.634 184.784L133.85 176.144H136.874L131.066 190.64C130.178 192.848 128.93 193.76 126.986 193.76C126.17 193.76 125.45 193.664 124.802 193.496ZM137.302 182.048C137.302 178.352 139.966 175.808 143.638 175.808C147.31 175.808 149.974 178.352 149.974 182.048C149.974 185.744 147.31 188.288 143.638 188.288C139.966 188.288 137.302 185.744 137.302 182.048ZM140.23 182.048C140.23 184.208 141.622 185.672 143.638 185.672C145.654 185.672 147.046 184.208 147.046 182.048C147.046 179.888 145.654 178.424 143.638 178.424C141.622 178.424 140.23 179.888 140.23 182.048ZM160.054 176.144H162.982V188H160.27L160.054 186.416C159.334 187.544 157.798 188.312 156.214 188.312C153.478 188.312 151.87 186.464 151.87 183.56V176.144H154.798V182.528C154.798 184.784 155.686 185.696 157.318 185.696C159.166 185.696 160.054 184.616 160.054 182.36V176.144ZM173.446 176.096V178.808H172.366C170.254 178.808 168.934 179.936 168.934 182.24V188H166.006V176.168H168.766L168.934 177.896C169.438 176.72 170.566 175.928 172.15 175.928C172.558 175.928 172.966 175.976 173.446 176.096ZM180.721 176.144H182.425V174.704C182.425 171.488 184.129 170.144 186.697 170.144C187.153 170.144 187.705 170.168 188.209 170.264V172.76H187.177C185.689 172.76 185.329 173.528 185.329 174.704V176.144H188.161V178.592H185.329V188H182.425V178.592H180.721V176.144ZM193.253 188.312C190.733 188.312 189.197 186.848 189.197 184.616C189.197 182.432 190.781 181.064 193.589 180.848L197.141 180.584V180.32C197.141 178.712 196.181 178.064 194.693 178.064C192.965 178.064 192.005 178.784 192.005 180.032H189.509C189.509 177.464 191.621 175.784 194.837 175.784C198.029 175.784 199.997 177.512 199.997 180.8V188H197.429L197.213 186.248C196.709 187.472 195.101 188.312 193.253 188.312ZM194.213 186.104C196.013 186.104 197.165 185.024 197.165 183.2V182.576L194.693 182.768C192.869 182.936 192.173 183.536 192.173 184.496C192.173 185.576 192.893 186.104 194.213 186.104ZM205.765 188L201.061 176.144H204.181L206.245 181.592C206.749 183.008 207.157 184.232 207.301 184.88C207.469 184.136 207.901 182.888 208.405 181.592L210.565 176.144H213.589L208.645 188H205.765ZM213.99 182.048C213.99 178.352 216.654 175.808 220.326 175.808C223.998 175.808 226.662 178.352 226.662 182.048C226.662 185.744 223.998 188.288 220.326 188.288C216.654 188.288 213.99 185.744 213.99 182.048ZM216.918 182.048C216.918 184.208 218.31 185.672 220.326 185.672C222.342 185.672 223.734 184.208 223.734 182.048C223.734 179.888 222.342 178.424 220.326 178.424C218.31 178.424 216.918 179.888 216.918 182.048ZM236.423 176.096V178.808H235.343C233.231 178.808 231.911 179.936 231.911 182.24V188H228.983V176.168H231.743L231.911 177.896C232.415 176.72 233.543 175.928 235.127 175.928C235.535 175.928 235.943 175.976 236.423 176.096ZM239.869 173.768C238.861 173.768 238.069 172.976 238.069 171.992C238.069 171.008 238.861 170.24 239.869 170.24C240.829 170.24 241.621 171.008 241.621 171.992C241.621 172.976 240.829 173.768 239.869 173.768ZM238.405 188V176.144H241.333V188H238.405ZM248.39 188H245.462V178.592H243.182V176.144H245.462V172.448H248.39V176.144H250.694V178.592H248.39V188ZM257.701 188.312C254.173 188.312 251.701 185.744 251.701 182.072C251.701 178.352 254.125 175.784 257.605 175.784C261.157 175.784 263.413 178.16 263.413 181.856V182.744L254.485 182.768C254.701 184.856 255.805 185.912 257.749 185.912C259.357 185.912 260.413 185.288 260.749 184.16H263.461C262.957 186.752 260.797 188.312 257.701 188.312ZM257.629 178.184C255.901 178.184 254.845 179.12 254.557 180.896H260.509C260.509 179.264 259.381 178.184 257.629 178.184ZM80.2209 215.808C80.2209 212.352 82.4769 209.76 85.8609 209.76C87.6369 209.76 89.0289 210.504 89.7249 211.776L89.8929 210.144H92.6049V221.4C92.6049 225.36 90.2289 227.832 86.3889 227.832C82.9809 227.832 80.6529 225.888 80.2929 222.72H83.2209C83.4129 224.256 84.5889 225.168 86.3889 225.168C88.4049 225.168 89.7009 223.896 89.7009 221.928V219.96C88.9569 221.064 87.4929 221.76 85.7889 221.76C82.4289 221.76 80.2209 219.24 80.2209 215.808ZM83.1729 215.736C83.1729 217.728 84.4449 219.216 86.3649 219.216C88.3809 219.216 89.6289 217.8 89.6289 215.736C89.6289 213.72 88.4049 212.328 86.3649 212.328C84.4209 212.328 83.1729 213.792 83.1729 215.736ZM99.163 222.312C96.643 222.312 95.107 220.848 95.107 218.616C95.107 216.432 96.691 215.064 99.499 214.848L103.051 214.584V214.32C103.051 212.712 102.091 212.064 100.603 212.064C98.875 212.064 97.915 212.784 97.915 214.032H95.419C95.419 211.464 97.531 209.784 100.747 209.784C103.939 209.784 105.907 211.512 105.907 214.8V222H103.339L103.123 220.248C102.619 221.472 101.011 222.312 99.163 222.312ZM100.123 220.104C101.923 220.104 103.075 219.024 103.075 217.2V216.576L100.603 216.768C98.779 216.936 98.083 217.536 98.083 218.496C98.083 219.576 98.803 220.104 100.123 220.104ZM111.711 222H108.783V210.144H111.471L111.711 211.536C112.311 210.552 113.511 209.784 115.215 209.784C117.015 209.784 118.263 210.672 118.887 212.04C119.487 210.672 120.879 209.784 122.679 209.784C125.559 209.784 127.143 211.512 127.143 214.248V222H124.239V215.016C124.239 213.312 123.327 212.424 121.935 212.424C120.519 212.424 119.439 213.336 119.439 215.28V222H116.511V214.992C116.511 213.336 115.623 212.448 114.231 212.448C112.839 212.448 111.711 213.36 111.711 215.28V222ZM135.322 222.312C131.794 222.312 129.322 219.744 129.322 216.072C129.322 212.352 131.746 209.784 135.226 209.784C138.778 209.784 141.034 212.16 141.034 215.856V216.744L132.106 216.768C132.322 218.856 133.426 219.912 135.37 219.912C136.978 219.912 138.034 219.288 138.37 218.16H141.082C140.578 220.752 138.418 222.312 135.322 222.312ZM135.25 212.184C133.522 212.184 132.466 213.12 132.178 214.896H138.13C138.13 213.264 137.002 212.184 135.25 212.184ZM151.31 207.768C150.302 207.768 149.51 206.976 149.51 205.992C149.51 205.008 150.302 204.24 151.31 204.24C152.27 204.24 153.062 205.008 153.062 205.992C153.062 206.976 152.27 207.768 151.31 207.768ZM149.846 222V210.144H152.774V222H149.846ZM158.727 222H155.799V210.144H158.511L158.751 211.68C159.495 210.48 160.935 209.784 162.543 209.784C165.519 209.784 167.055 211.632 167.055 214.704V222H164.127V215.4C164.127 213.408 163.143 212.448 161.631 212.448C159.831 212.448 158.727 213.696 158.727 215.616V222ZM175.489 218.4H178.273C178.297 219.432 179.065 220.08 180.409 220.08C181.777 220.08 182.521 219.528 182.521 218.664C182.521 218.064 182.209 217.632 181.153 217.392L179.017 216.888C176.881 216.408 175.849 215.4 175.849 213.504C175.849 211.176 177.817 209.784 180.553 209.784C183.217 209.784 185.017 211.32 185.041 213.624H182.257C182.233 212.616 181.561 211.968 180.433 211.968C179.281 211.968 178.609 212.496 178.609 213.384C178.609 214.056 179.137 214.488 180.145 214.728L182.281 215.232C184.273 215.688 185.281 216.6 185.281 218.424C185.281 220.824 183.241 222.312 180.313 222.312C177.361 222.312 175.489 220.728 175.489 218.4ZM192.814 222.312C189.286 222.312 186.814 219.744 186.814 216.072C186.814 212.352 189.238 209.784 192.718 209.784C196.27 209.784 198.526 212.16 198.526 215.856V216.744L189.598 216.768C189.814 218.856 190.918 219.912 192.862 219.912C194.47 219.912 195.526 219.288 195.862 218.16H198.574C198.07 220.752 195.91 222.312 192.814 222.312ZM192.742 212.184C191.014 212.184 189.958 213.12 189.67 214.896H195.622C195.622 213.264 194.494 212.184 192.742 212.184ZM200.173 216.048C200.173 212.376 202.597 209.784 206.101 209.784C209.341 209.784 211.549 211.584 211.861 214.44H208.933C208.597 213.096 207.613 212.4 206.221 212.4C204.349 212.4 203.101 213.816 203.101 216.048C203.101 218.28 204.253 219.672 206.125 219.672C207.589 219.672 208.621 218.952 208.933 217.656H211.885C211.525 220.416 209.221 222.312 206.125 222.312C202.525 222.312 200.173 219.816 200.173 216.048ZM213.369 216.048C213.369 212.352 216.033 209.808 219.705 209.808C223.377 209.808 226.041 212.352 226.041 216.048C226.041 219.744 223.377 222.288 219.705 222.288C216.033 222.288 213.369 219.744 213.369 216.048ZM216.297 216.048C216.297 218.208 217.689 219.672 219.705 219.672C221.721 219.672 223.113 218.208 223.113 216.048C223.113 213.888 221.721 212.424 219.705 212.424C217.689 212.424 216.297 213.888 216.297 216.048ZM231.29 222H228.362V210.144H231.074L231.314 211.68C232.058 210.48 233.498 209.784 235.106 209.784C238.082 209.784 239.618 211.632 239.618 214.704V222H236.69V215.4C236.69 213.408 235.706 212.448 234.194 212.448C232.394 212.448 231.29 213.696 231.29 215.616V222ZM247.366 222.312C243.934 222.312 241.798 219.792 241.798 216.12C241.798 212.424 243.958 209.784 247.534 209.784C249.19 209.784 250.654 210.48 251.398 211.656V204.144H254.302V222H251.614L251.422 220.152C250.702 221.52 249.166 222.312 247.366 222.312ZM248.014 219.624C250.054 219.624 251.374 218.16 251.374 216.024C251.374 213.888 250.054 212.4 248.014 212.4C245.974 212.4 244.726 213.912 244.726 216.024C244.726 218.136 245.974 219.624 248.014 219.624ZM256.442 218.4H259.226C259.25 219.432 260.018 220.08 261.362 220.08C262.73 220.08 263.474 219.528 263.474 218.664C263.474 218.064 263.162 217.632 262.106 217.392L259.97 216.888C257.834 216.408 256.802 215.4 256.802 213.504C256.802 211.176 258.77 209.784 261.506 209.784C264.17 209.784 265.97 211.32 265.994 213.624H263.21C263.186 212.616 262.514 211.968 261.386 211.968C260.234 211.968 259.562 212.496 259.562 213.384C259.562 214.056 260.09 214.488 261.098 214.728L263.234 215.232C265.226 215.688 266.234 216.6 266.234 218.424C266.234 220.824 264.194 222.312 261.266 222.312C258.314 222.312 256.442 220.728 256.442 218.4ZM270.361 222.288C269.305 222.288 268.417 221.424 268.417 220.392C268.417 219.336 269.305 218.472 270.361 218.472C271.417 218.472 272.305 219.336 272.305 220.392C272.305 221.424 271.417 222.288 270.361 222.288Z" fill="#E0E0E0"/>
<circle cx="176.289" cy="175.316" r="129" stroke="#F5F5F5" stroke-opacity="0.1" stroke-width="2"/>
<circle opacity="0.6" cx="175.289" cy="175.316" r="152" stroke="#F5F5F5" stroke-opacity="0.1" stroke-width="2"/>
<path opacity="0.4" d="M175.289 1.31641C271.384 1.31641 349.289 79.44 349.289 175.816C349.289 272.193 271.384 350.316 175.289 350.316C79.1942 350.316 1.28906 272.193 1.28906 175.816C1.28906 79.44 79.1942 1.31641 175.289 1.31641Z" stroke="#F5F5F5" stroke-opacity="0.1" stroke-width="2"/>
</svg>
